<svg width="165" height="39" viewBox="0 0 165 39" fill="none" xmlns="http://www.w3.org/2000/svg">
<path d="M14.8303 20.8863C14.7197 20.4743 14.3155 19.9767 13.305 20.0105C11.48 20.0783 9.66154 19.7468 7.96655 19.0373C3.7263 17.2818 2.72916 14.4954 1.32973 14.1929C0.475576 14.0058 0.260131 16.2329 0.122857 17.2739C-0.185064 20.0763 0.0874664 22.9151 0.921994 25.5979C1.75652 28.2808 3.13356 30.7452 4.95986 32.8242C5.65767 33.5924 7.0857 35.2643 7.67293 34.5876C8.62622 33.483 7.86359 30.6189 10.3136 26.5965C11.2837 24.9825 12.5671 23.5987 14.081 22.5343C14.9256 21.9372 14.9713 21.2863 14.8283 20.8843" fill="#F89F1B"/>
<path d="M19.1496 23.4008C18.7277 23.3845 18.1331 23.6366 17.8427 24.6817C17.322 26.553 16.4305 28.2912 15.225 29.7853C12.2306 33.5327 9.30091 33.6649 8.5729 34.9865C8.1255 35.7998 10.1427 36.7169 11.0768 37.1845C13.6066 38.3809 16.355 39 19.1359 39C21.9167 39 24.6651 38.3809 27.195 37.1845C28.1447 36.7169 30.1639 35.7937 29.7185 34.9865C28.9865 33.6628 26.0549 33.5327 23.0624 29.7853C21.8583 28.2915 20.9692 26.553 20.4526 24.6817C20.1602 23.6346 19.5656 23.3845 19.1418 23.4008" fill="#B6202E"/>
<path d="M23.4645 20.8858C23.3167 21.2839 23.3646 21.9386 24.2476 22.5357C25.8341 23.6004 27.1795 24.9841 28.1971 26.5977C30.7562 30.6178 29.9571 33.4857 30.964 34.5882C31.5793 35.2629 33.0756 33.5931 33.8068 32.8369C35.7196 30.7581 37.1617 28.2941 38.0355 25.6117C38.9092 22.9293 39.1941 20.0912 38.871 17.2896C38.7311 16.2348 38.5054 14.0058 37.6084 14.1928C36.1441 14.4973 35.0993 17.2836 30.6563 19.0389C28.8802 19.748 26.975 20.0802 25.0627 20.0141C23.9919 19.9783 23.5704 20.4759 23.4525 20.8878" fill="#95171A"/>
<path d="M21.8018 16.0809C22.126 16.3466 22.7378 16.5005 23.5473 15.8451C24.994 14.6667 26.6614 13.8167 28.4423 13.3495C32.8865 12.1627 35.2764 13.8111 36.5865 13.1957C37.3882 12.822 36.3026 10.8819 35.8192 9.94883C34.4824 7.48356 32.6528 5.34625 30.4541 3.68159C28.2554 2.01693 25.7391 0.863786 23.0754 0.300218C22.0665 0.100413 19.9566 -0.369128 19.8626 0.539987C19.7053 2.02854 21.9495 3.88873 22.2391 8.65809C22.3627 10.5662 22.1013 12.4801 21.4719 14.2766C21.1228 15.2757 21.4527 15.8411 21.7961 16.0749" fill="#008FC0"/>
<path d="M16.4102 16.0801C16.7679 15.8422 17.1136 15.2805 16.7499 14.2811C16.0955 12.4828 15.8233 10.5678 15.9507 8.6583C16.2524 3.88702 18.5921 2.02808 18.4283 0.538929C18.3284 -0.370552 16.1345 0.105173 15.0935 0.291067C12.3175 0.852858 9.69464 2.00518 7.4028 3.66989C5.11096 5.33461 3.20368 7.47282 1.81028 9.93956C1.30077 10.877 0.169854 12.8219 1.01104 13.1957C2.37373 13.8114 4.86534 12.1623 9.49688 13.3496C11.3528 13.8155 13.0905 14.6653 14.598 15.8442C15.4432 16.5018 16.0786 16.3459 16.4162 16.0801" fill="#41BB98"/>
<path d="M47.509 9.92725H51.0545V31.2H47.509V9.92725Z" fill="white"/>
<path d="M57.525 28.2302C58.4737 28.2302 59.1621 28.1159 59.596 27.8892C59.8069 27.779 59.9809 27.609 60.0965 27.4003C60.212 27.1916 60.2639 26.9534 60.2458 26.7153C60.2456 26.4607 60.1818 26.2102 60.0601 25.9868C59.9385 25.7634 59.763 25.5743 59.5497 25.4368C59.0889 25.1016 58.3233 24.7336 57.2608 24.3384C56.6479 24.119 56.0473 23.8661 55.4617 23.5809C54.9528 23.3362 54.4803 23.0212 54.058 22.6453C53.6601 22.2863 53.3426 21.8466 53.1266 21.3551C52.8833 20.7671 52.7669 20.1339 52.7853 19.4974C52.7853 18.0691 53.3078 16.9449 54.353 16.1248C55.3981 15.3047 56.818 14.8934 58.6126 14.8908C59.4865 14.888 60.3586 14.973 61.2158 15.1446C61.8482 15.2618 62.4709 15.4269 63.0785 15.6386L62.4267 18.5443C61.9398 18.3357 61.4351 18.1716 60.9188 18.0542C60.2198 17.8959 59.5045 17.8212 58.788 17.8314C58.1758 17.8058 57.5668 17.9336 57.0159 18.2034C56.8042 18.3068 56.627 18.4699 56.5061 18.6729C56.3852 18.8759 56.3258 19.1099 56.3353 19.3463C56.3308 19.5811 56.3762 19.8142 56.4683 20.0301C56.5731 20.2492 56.7309 20.4383 56.9272 20.5803C57.1939 20.7784 57.481 20.9472 57.7834 21.0839C58.2077 21.2808 58.6422 21.4547 59.085 21.605C59.8226 21.874 60.5437 22.1864 61.2447 22.5407C61.7823 22.8099 62.2759 23.16 62.7082 23.579C63.083 23.9521 63.3707 24.404 63.5509 24.9021C63.7406 25.4771 63.8306 26.0806 63.817 26.6862C63.817 28.1701 63.27 29.2937 62.176 30.0569C61.0821 30.8201 59.5189 31.2011 57.4864 31.1998C56.1276 31.1998 55.0349 31.0862 54.2084 30.8589C53.6204 30.7081 53.041 30.525 52.4729 30.3107L53.0919 27.3081C53.7148 27.5559 54.3523 27.7649 55.0009 27.9338C55.826 28.1416 56.6744 28.2413 57.525 28.2302Z" fill="white"/>
<path d="M71.0759 31.2C70.1168 31.2028 69.1619 31.0813 68.2382 30.839C67.5688 30.664 66.9531 30.3427 66.4417 29.9015C65.9905 29.4828 65.668 28.9578 65.5082 28.3818C65.3182 27.7068 65.227 27.0107 65.2371 26.3127V8.39592L69.0785 7.80005V25.6315C69.0717 26.0016 69.1085 26.3713 69.1882 26.7339C69.2524 27.0136 69.3889 27.2742 69.5856 27.4928C69.7955 27.7127 70.0631 27.8773 70.3618 27.9703C70.7701 28.095 71.1912 28.1796 71.6181 28.2226L71.0759 31.2Z" fill="white"/>
<path d="M77.9926 14.8936C79.0274 14.8675 80.0589 15.0188 81.0415 15.3407C81.7903 15.595 82.4653 16.0252 83.0086 16.5943C83.5129 17.1495 83.8751 17.816 84.0649 18.538C84.2835 19.3626 84.39 20.2124 84.3816 21.0648V30.5149C83.819 30.6334 82.9673 30.7773 81.8342 30.9464C80.5591 31.1245 79.2724 31.209 77.9847 31.1991C77.1124 31.2066 76.242 31.1166 75.3901 30.9308C74.6696 30.7797 73.9876 30.4854 73.3857 30.0659C72.8278 29.6634 72.3813 29.1287 72.0874 28.511C71.7542 27.7705 71.5948 26.9652 71.6212 26.1552C71.5953 25.3674 71.777 24.5865 72.1484 23.8889C72.4947 23.2792 72.9871 22.7626 73.5824 22.3845C74.2232 21.9818 74.9332 21.6986 75.6773 21.5487C76.4954 21.3777 77.3295 21.293 78.1657 21.2961C78.5897 21.2973 79.0133 21.3226 79.4344 21.3719C79.9119 21.4274 80.3856 21.5117 80.8527 21.6245V21.0278C80.8543 20.6259 80.8034 20.2254 80.7012 19.8364C80.6053 19.4558 80.4161 19.1044 80.1502 18.8132C79.8844 18.5221 79.55 18.3 79.1767 18.1668C78.6787 17.9933 78.1525 17.9122 77.6247 17.9277C76.846 17.9227 76.0682 17.9826 75.2996 18.1065C74.7159 18.1958 74.1413 18.3356 73.5824 18.5244L73.13 15.6089C73.7907 15.4013 74.4659 15.2415 75.1501 15.1308C76.0885 14.9673 77.0398 14.8879 77.9926 14.8936ZM78.2915 28.3399C79.1478 28.3602 80.0041 28.2997 80.8487 28.1592V24.1649C80.561 24.0875 80.2686 24.0277 79.9734 23.9861C79.554 23.9244 79.1305 23.8945 78.7066 23.8967C78.2971 23.8978 77.8883 23.9277 77.4831 23.9861C77.0965 24.0388 76.7204 24.1495 76.3678 24.3146C76.0465 24.4648 75.771 24.6961 75.5691 24.9852C75.3566 25.3083 75.2508 25.6886 75.2662 26.0736C75.2662 26.9288 75.5377 27.5203 76.0806 27.8482C76.6372 28.1747 77.369 28.3399 78.2915 28.3399Z" fill="white"/>
<path d="M85.8 15.7472C86.7257 15.5003 87.6649 15.3062 88.6131 15.166C89.8763 14.9746 91.1528 14.8827 92.4307 14.8913C93.7448 14.8913 94.8439 15.0698 95.728 15.4267C96.5484 15.7387 97.2746 16.2533 97.8377 16.9216C98.3804 17.6015 98.7603 18.3943 98.9489 19.2406C99.1716 20.2204 99.2801 21.2222 99.2724 22.2265V31.1998H95.5391V22.7977C95.5485 22.0644 95.4921 21.3316 95.3703 20.6081C95.2865 20.087 95.0972 19.588 94.8138 19.1411C94.5588 18.7667 94.1931 18.4795 93.7669 18.319C93.2482 18.1327 92.6989 18.0443 92.1474 18.0582C91.6531 18.0593 91.1592 18.0899 90.6686 18.1498C90.1569 18.2109 89.7771 18.262 89.5293 18.3031V31.1859H85.8V15.7472Z" fill="white"/>
<path d="M114.871 30.3385C112.865 30.9069 110.789 31.1965 108.702 31.1989C107.564 31.2166 106.433 31.0258 105.366 30.6363C104.416 30.285 103.555 29.7341 102.842 29.0218C102.134 28.2929 101.59 27.4235 101.249 26.4716C100.864 25.3905 100.675 24.251 100.692 23.1054C100.678 21.9763 100.835 20.8515 101.159 19.7682C101.438 18.8318 101.905 17.96 102.532 17.2045C103.128 16.4969 103.881 15.9334 104.732 15.5571C105.672 15.1556 106.688 14.9578 107.713 14.9771C108.394 14.9662 109.072 15.0562 109.726 15.2439C110.245 15.3976 110.749 15.5962 111.233 15.8375V8.39362L114.873 7.80005L114.871 30.3385ZM104.428 23.0184C104.428 24.6 104.809 25.8406 105.572 26.7403C106.335 27.64 107.388 28.0912 108.731 28.0938C109.229 28.0988 109.726 28.0743 110.22 28.0203C110.63 27.97 110.968 27.9159 111.231 27.8579V18.9581C110.832 18.702 110.401 18.4974 109.95 18.3491C109.404 18.1588 108.829 18.0633 108.25 18.0668C106.926 18.0668 105.958 18.5121 105.346 19.4028C104.734 20.2935 104.428 21.4987 104.428 23.0184Z" fill="white"/>
<path d="M128.417 9.92725C131.369 9.92725 133.631 10.4847 135.202 11.5997C136.772 12.7147 137.559 14.4572 137.561 16.8273C137.589 17.9201 137.374 19.0049 136.933 19.9979C136.517 20.8734 135.885 21.6187 135.1 22.1578C134.205 22.7532 133.212 23.1705 132.169 23.3884C130.868 23.6675 129.541 23.8004 128.212 23.7847H126.366V31.2H122.673V10.4345C123.616 10.221 124.575 10.0845 125.539 10.0263C126.578 9.95499 127.534 9.92725 128.417 9.92725ZM128.68 13.2326C127.741 13.2326 126.97 13.263 126.366 13.3238V20.4952H128.155C129.932 20.4952 131.299 20.237 132.257 19.7204C133.213 19.2032 133.692 18.2283 133.692 16.7876C133.71 16.1858 133.579 15.5894 133.31 15.0557C133.061 14.5974 132.696 14.2189 132.253 13.9618C131.755 13.6828 131.215 13.4925 130.656 13.399C130.003 13.285 129.342 13.2293 128.68 13.2326Z" fill="white"/>
<path d="M143.236 14.8936C144.269 14.8675 145.299 15.0188 146.28 15.3407C147.028 15.5948 147.703 16.025 148.245 16.5943C148.747 17.1509 149.109 17.8169 149.301 18.538C149.52 19.3626 149.626 20.2124 149.618 21.0648V30.5149C149.053 30.6334 148.206 30.7773 147.062 30.9464C145.79 31.1245 144.506 31.209 143.221 31.1991C142.348 31.2069 141.478 31.1169 140.626 30.9308C139.905 30.7796 139.223 30.4854 138.621 30.0659C138.064 29.6623 137.618 29.1279 137.323 28.511C136.991 27.7702 136.832 26.9651 136.857 26.1552C136.831 25.3672 137.013 24.586 137.386 23.8889C137.732 23.2794 138.223 22.7628 138.817 22.3845C139.458 21.9815 140.168 21.6982 140.913 21.5488C141.73 21.3777 142.564 21.293 143.4 21.2961C143.823 21.2973 144.245 21.3226 144.666 21.3719C145.143 21.4275 145.617 21.5119 146.085 21.6245V21.0278C146.087 20.6258 146.035 20.2252 145.932 19.8364C145.837 19.4557 145.648 19.104 145.383 18.8127C145.117 18.5214 144.783 18.2995 144.41 18.1668C143.912 17.9935 143.385 17.9124 142.857 17.9277C142.079 17.9228 141.303 17.9826 140.535 18.1065C139.951 18.1958 139.376 18.3356 138.817 18.5244L138.365 15.6089C139.026 15.4011 139.701 15.2413 140.386 15.1308C141.327 14.9666 142.281 14.8872 143.236 14.8936ZM143.537 28.3399C144.393 28.3601 145.249 28.2995 146.093 28.1592V24.1649C145.805 24.0875 145.512 24.0278 145.216 23.9861C144.797 23.9244 144.374 23.8945 143.95 23.8967C143.541 23.8979 143.134 23.9278 142.729 23.9861C142.343 24.0385 141.967 24.1492 141.615 24.3146C141.296 24.4643 141.023 24.6934 140.822 24.9793C140.611 25.303 140.506 25.683 140.522 26.0678C140.522 26.923 140.793 27.5145 141.335 27.8423C141.878 28.1702 142.612 28.336 143.537 28.3399Z" fill="white"/>
<path d="M164.509 15.6039C162.92 21.5544 161.076 26.9464 158.977 31.7798C158.635 32.5805 158.23 33.3519 157.766 34.0864C157.388 34.6855 156.92 35.2212 156.38 35.6743C155.875 36.0916 155.293 36.4024 154.668 36.5884C153.956 36.7889 153.219 36.8843 152.48 36.8716C151.929 36.8715 151.38 36.8106 150.843 36.6899C150.421 36.6097 150.01 36.4785 149.618 36.2993L150.268 33.393C150.937 33.6651 151.65 33.8081 152.371 33.8149C153.297 33.8149 154.022 33.5897 154.547 33.1391C155.071 32.6886 155.529 31.9946 155.923 31.0571C154.796 28.8605 153.716 26.464 152.682 23.8676C151.609 21.1662 150.685 18.4061 149.914 15.6H153.716C153.912 16.4372 154.154 17.3487 154.441 18.3344C154.728 19.32 155.039 20.3135 155.373 21.3149C155.708 22.3227 156.062 23.3259 156.438 24.3246C156.813 25.3233 157.188 26.2504 157.562 27.1059C158.189 25.3272 158.777 23.4347 159.325 21.4281C159.873 19.4216 160.372 17.4795 160.82 15.6019L164.509 15.6039Z" fill="white"/>
</svg>
