<svg width="165" height="39" viewBox="0 0 165 39" fill="none" xmlns="http://www.w3.org/2000/svg">
<path d="M14.8303 20.8864C14.7197 20.4744 14.3155 19.9768 13.305 20.0107C11.48 20.0784 9.66154 19.7469 7.96655 19.0374C3.7263 17.2819 2.72916 14.4955 1.32973 14.193C0.475576 14.0059 0.260131 16.2331 0.122857 17.274C-0.185064 20.0764 0.0874664 22.9152 0.921994 25.5981C1.75652 28.281 3.13356 30.7453 4.95986 32.8243C5.65767 33.5926 7.0857 35.2644 7.67293 34.5877C8.62622 33.4831 7.86359 30.619 10.3136 26.5966C11.2837 24.9826 12.5671 23.5988 14.081 22.5344C14.9256 21.9373 14.9713 21.2865 14.8283 20.8844" fill="#F89F1B"/>
<path d="M19.1496 23.4006C18.7277 23.3844 18.1331 23.6365 17.8427 24.6816C17.322 26.5528 16.4305 28.291 15.225 29.7852C12.2306 33.5326 9.30091 33.6648 8.5729 34.9864C8.1255 35.7997 10.1427 36.7167 11.0768 37.1844C13.6066 38.3808 16.355 38.9999 19.1359 38.9999C21.9167 38.9999 24.6651 38.3808 27.195 37.1844C28.1447 36.7167 30.1639 35.7936 29.7185 34.9864C28.9865 33.6627 26.0549 33.5326 23.0624 29.7852C21.8583 28.2914 20.9692 26.5529 20.4526 24.6816C20.1602 23.6345 19.5656 23.3844 19.1418 23.4006" fill="#B6202E"/>
<path d="M23.4645 20.886C23.3167 21.284 23.3646 21.9388 24.2476 22.5358C25.8341 23.6005 27.1795 24.9842 28.1971 26.5978C30.7562 30.618 29.9571 33.4858 30.964 34.5884C31.5793 35.263 33.0756 33.5933 33.8068 32.837C35.7196 30.7582 37.1617 28.2942 38.0355 25.6118C38.9092 22.9294 39.1941 20.0913 38.871 17.2897C38.7311 16.2349 38.5054 14.0059 37.6084 14.193C36.1441 14.4975 35.0993 17.2837 30.6563 19.0391C28.8802 19.7482 26.975 20.0803 25.0627 20.0143C23.9919 19.9784 23.5704 20.476 23.4525 20.8879" fill="#95171A"/>
<path d="M21.8018 16.0809C22.126 16.3466 22.7378 16.5005 23.5473 15.8451C24.994 14.6667 26.6614 13.8167 28.4423 13.3495C32.8865 12.1627 35.2764 13.8111 36.5865 13.1957C37.3882 12.822 36.3026 10.8819 35.8192 9.94883C34.4824 7.48356 32.6528 5.34625 30.4541 3.68159C28.2554 2.01693 25.7391 0.863786 23.0754 0.300218C22.0665 0.100413 19.9566 -0.369128 19.8626 0.539987C19.7053 2.02854 21.9495 3.88873 22.2391 8.65809C22.3627 10.5662 22.1013 12.4801 21.4719 14.2766C21.1228 15.2757 21.4527 15.8411 21.7961 16.0749" fill="#008FC0"/>
<path d="M16.4102 16.0801C16.7679 15.8422 17.1136 15.2805 16.7499 14.2811C16.0955 12.4828 15.8233 10.5678 15.9507 8.6583C16.2524 3.88702 18.5921 2.02808 18.4283 0.538929C18.3284 -0.370552 16.1345 0.105173 15.0935 0.291067C12.3175 0.852858 9.69464 2.00518 7.4028 3.66989C5.11096 5.33461 3.20368 7.47282 1.81028 9.93956C1.30077 10.877 0.169854 12.8219 1.01104 13.1957C2.37373 13.8114 4.86534 12.1623 9.49688 13.3496C11.3528 13.8155 13.0905 14.6653 14.598 15.8442C15.4432 16.5018 16.0786 16.3459 16.4162 16.0801" fill="#41BB98"/>
<path d="M47.509 9.92725H51.0545V31.2H47.509V9.92725Z" fill="#58585A"/>
<path d="M57.525 28.2303C58.4737 28.2303 59.1621 28.116 59.596 27.8893C59.8069 27.7792 59.9809 27.6092 60.0965 27.4004C60.212 27.1917 60.2639 26.9535 60.2458 26.7154C60.2456 26.4608 60.1818 26.2103 60.0601 25.9869C59.9385 25.7635 59.763 25.5744 59.5497 25.4369C59.0889 25.1017 58.3233 24.7337 57.2608 24.3385C56.6479 24.1191 56.0473 23.8662 55.4617 23.5811C54.9528 23.3363 54.4803 23.0214 54.058 22.6454C53.6601 22.2864 53.3426 21.8467 53.1266 21.3553C52.8833 20.7673 52.7669 20.1341 52.7853 19.4975C52.7853 18.0692 53.3078 16.945 54.353 16.1249C55.3981 15.3048 56.818 14.8935 58.6126 14.8909C59.4865 14.8881 60.3586 14.9731 61.2158 15.1447C61.8482 15.2619 62.4709 15.4271 63.0785 15.6387L62.4267 18.5444C61.9398 18.3358 61.4351 18.1718 60.9188 18.0543C60.2198 17.896 59.5045 17.8213 58.788 17.8316C58.1758 17.8059 57.5668 17.9337 57.0159 18.2035C56.8042 18.3069 56.627 18.4701 56.5061 18.6731C56.3852 18.8761 56.3258 19.1101 56.3353 19.3464C56.3308 19.5813 56.3762 19.8144 56.4683 20.0302C56.5731 20.2493 56.7309 20.4385 56.9272 20.5804C57.1939 20.7785 57.481 20.9473 57.7834 21.0841C58.2077 21.2809 58.6422 21.4549 59.085 21.6052C59.8226 21.8741 60.5437 22.1865 61.2447 22.5408C61.7823 22.81 62.2759 23.1601 62.7082 23.5791C63.083 23.9522 63.3707 24.4041 63.5509 24.9022C63.7406 25.4772 63.8306 26.0807 63.817 26.6864C63.817 28.1702 63.27 29.2938 62.176 30.057C61.0821 30.8203 59.5189 31.2012 57.4864 31.2C56.1276 31.2 55.0349 31.0863 54.2084 30.859C53.6204 30.7082 53.041 30.5252 52.4729 30.3108L53.0919 27.3082C53.7148 27.5561 54.3523 27.765 55.0009 27.9339C55.826 28.1418 56.6744 28.2414 57.525 28.2303Z" fill="#58585A"/>
<path d="M71.0759 31.2C70.1168 31.2028 69.1619 31.0813 68.2382 30.839C67.5688 30.664 66.9531 30.3427 66.4417 29.9015C65.9905 29.4828 65.668 28.9578 65.5082 28.3818C65.3182 27.7068 65.227 27.0107 65.2371 26.3127V8.39592L69.0785 7.80005V25.6315C69.0717 26.0016 69.1085 26.3713 69.1882 26.7339C69.2524 27.0136 69.3889 27.2742 69.5856 27.4928C69.7955 27.7127 70.0631 27.8773 70.3618 27.9703C70.7701 28.095 71.1912 28.1796 71.6181 28.2226L71.0759 31.2Z" fill="#58585A"/>
<path d="M77.9926 14.8938C79.0274 14.8677 80.0589 15.0189 81.0415 15.3408C81.7903 15.5951 82.4653 16.0253 83.0086 16.5945C83.5129 17.1496 83.8751 17.8161 84.0649 18.5381C84.2835 19.3627 84.39 20.2125 84.3816 21.0649V30.515C83.819 30.6336 82.9673 30.7774 81.8342 30.9465C80.5591 31.1246 79.2724 31.2091 77.9847 31.1992C77.1124 31.2067 76.242 31.1167 75.3901 30.9309C74.6696 30.7798 73.9876 30.4855 73.3857 30.066C72.8278 29.6635 72.3813 29.1288 72.0874 28.5111C71.7542 27.7707 71.5948 26.9653 71.6212 26.1554C71.5953 25.3676 71.777 24.5866 72.1484 23.889C72.4947 23.2793 72.9871 22.7627 73.5824 22.3846C74.2232 21.982 74.9332 21.6987 75.6773 21.5489C76.4954 21.3778 77.3295 21.2931 78.1657 21.2962C78.5897 21.2974 79.0133 21.3227 79.4344 21.372C79.9119 21.4275 80.3856 21.5119 80.8527 21.6247V21.028C80.8543 20.626 80.8034 20.2255 80.7012 19.8365C80.6053 19.4559 80.4161 19.1045 80.1502 18.8134C79.8844 18.5222 79.55 18.3002 79.1767 18.1669C78.6787 17.9934 78.1525 17.9123 77.6247 17.9278C76.846 17.9229 76.0682 17.9827 75.2996 18.1066C74.7159 18.1959 74.1413 18.3357 73.5824 18.5245L73.13 15.609C73.7907 15.4015 74.4659 15.2417 75.1501 15.1309C76.0885 14.9674 77.0398 14.8881 77.9926 14.8938ZM78.2915 28.34C79.1478 28.3604 80.0041 28.2998 80.8487 28.1593V24.165C80.561 24.0876 80.2686 24.0279 79.9734 23.9862C79.554 23.9246 79.1305 23.8947 78.7066 23.8968C78.2971 23.8979 77.8883 23.9278 77.4831 23.9862C77.0965 24.0389 76.7204 24.1497 76.3678 24.3147C76.0465 24.4649 75.771 24.6962 75.5691 24.9853C75.3566 25.3084 75.2508 25.6887 75.2662 26.0737C75.2662 26.9289 75.5377 27.5205 76.0806 27.8483C76.6372 28.1748 77.369 28.34 78.2915 28.34Z" fill="#58585A"/>
<path d="M85.8 15.7474C86.7257 15.5004 87.6649 15.3063 88.6131 15.1661C89.8763 14.9747 91.1528 14.8828 92.4307 14.8914C93.7448 14.8914 94.8439 15.0699 95.728 15.4269C96.5484 15.7388 97.2746 16.2534 97.8377 16.9218C98.3804 17.6016 98.7603 18.3945 98.9489 19.2408C99.1716 20.2205 99.2801 21.2223 99.2724 22.2266V31.2H95.5391V22.7979C95.5485 22.0645 95.4921 21.3317 95.3703 20.6083C95.2865 20.0871 95.0972 19.5881 94.8138 19.1412C94.5588 18.7668 94.1931 18.4796 93.7669 18.3191C93.2482 18.1329 92.6989 18.0444 92.1474 18.0584C91.6531 18.0594 91.1592 18.09 90.6686 18.1499C90.1569 18.211 89.7771 18.2621 89.5293 18.3032V31.186H85.8V15.7474Z" fill="#58585A"/>
<path d="M114.871 30.3385C112.865 30.9069 110.789 31.1965 108.702 31.1989C107.564 31.2166 106.433 31.0258 105.366 30.6363C104.416 30.285 103.555 29.7341 102.842 29.0218C102.134 28.2929 101.59 27.4235 101.249 26.4716C100.864 25.3905 100.675 24.251 100.692 23.1054C100.678 21.9763 100.835 20.8515 101.159 19.7682C101.438 18.8318 101.905 17.96 102.532 17.2045C103.128 16.4969 103.881 15.9334 104.732 15.5571C105.672 15.1556 106.688 14.9578 107.713 14.9771C108.394 14.9662 109.072 15.0562 109.726 15.2439C110.245 15.3976 110.749 15.5962 111.233 15.8375V8.39362L114.873 7.80005L114.871 30.3385ZM104.428 23.0184C104.428 24.6 104.809 25.8406 105.572 26.7403C106.335 27.64 107.388 28.0912 108.731 28.0938C109.229 28.0988 109.726 28.0743 110.22 28.0203C110.63 27.97 110.968 27.9159 111.231 27.8579V18.9581C110.832 18.702 110.401 18.4974 109.95 18.3491C109.404 18.1588 108.829 18.0633 108.25 18.0668C106.926 18.0668 105.958 18.5121 105.346 19.4028C104.734 20.2935 104.428 21.4987 104.428 23.0184Z" fill="#58585A"/>
<path d="M128.417 9.92725C131.369 9.92725 133.631 10.4847 135.202 11.5997C136.772 12.7147 137.559 14.4572 137.561 16.8273C137.589 17.9201 137.374 19.0049 136.933 19.9979C136.517 20.8734 135.885 21.6187 135.1 22.1578C134.205 22.7532 133.212 23.1705 132.169 23.3884C130.868 23.6675 129.541 23.8004 128.212 23.7847H126.366V31.2H122.673V10.4345C123.616 10.221 124.575 10.0845 125.539 10.0263C126.578 9.95499 127.534 9.92725 128.417 9.92725ZM128.68 13.2326C127.741 13.2326 126.97 13.263 126.366 13.3238V20.4952H128.155C129.932 20.4952 131.299 20.237 132.257 19.7204C133.213 19.2032 133.692 18.2283 133.692 16.7876C133.71 16.1858 133.579 15.5894 133.31 15.0557C133.061 14.5974 132.696 14.2189 132.253 13.9618C131.755 13.6828 131.215 13.4925 130.656 13.399C130.003 13.285 129.342 13.2293 128.68 13.2326Z" fill="#58585A"/>
<path d="M143.236 14.8938C144.269 14.8676 145.299 15.0189 146.28 15.3408C147.028 15.5949 147.703 16.0251 148.245 16.5945C148.747 17.151 149.109 17.817 149.301 18.5381C149.52 19.3628 149.626 20.2125 149.618 21.0649V30.515C149.053 30.6336 148.206 30.7774 147.062 30.9465C145.79 31.1246 144.506 31.2091 143.221 31.1992C142.348 31.207 141.478 31.117 140.626 30.9309C139.905 30.7798 139.223 30.4855 138.621 30.066C138.064 29.6624 137.618 29.128 137.323 28.5111C136.991 27.7704 136.832 26.9652 136.857 26.1554C136.831 25.3673 137.013 24.5861 137.386 23.889C137.732 23.2795 138.223 22.763 138.817 22.3847C139.458 21.9816 140.168 21.6983 140.913 21.5489C141.73 21.3778 142.564 21.2931 143.4 21.2962C143.823 21.2974 144.245 21.3227 144.666 21.372C145.143 21.4276 145.617 21.512 146.085 21.6247V21.028C146.087 20.6259 146.035 20.2253 145.932 19.8365C145.837 19.4558 145.648 19.1041 145.383 18.8129C145.117 18.5216 144.783 18.2997 144.41 18.1669C143.912 17.9936 143.385 17.9125 142.857 17.9278C142.079 17.9229 141.303 17.9828 140.535 18.1066C139.951 18.1959 139.376 18.3357 138.817 18.5245L138.365 15.609C139.026 15.4013 139.701 15.2415 140.386 15.1309C141.327 14.9667 142.281 14.8873 143.236 14.8938ZM143.537 28.34C144.393 28.3602 145.249 28.2997 146.093 28.1593V24.165C145.805 24.0876 145.512 24.0279 145.216 23.9862C144.797 23.9245 144.374 23.8946 143.95 23.8968C143.541 23.898 143.134 23.9279 142.729 23.9862C142.343 24.0386 141.967 24.1494 141.615 24.3147C141.296 24.4644 141.023 24.6935 140.822 24.9794C140.611 25.3031 140.506 25.6831 140.522 26.0679C140.522 26.9231 140.793 27.5146 141.335 27.8425C141.878 28.1703 142.612 28.3361 143.537 28.34Z" fill="#58585A"/>
<path d="M164.509 15.6038C162.92 21.5543 161.076 26.9463 158.977 31.7796C158.635 32.5804 158.23 33.3518 157.766 34.0863C157.388 34.6853 156.92 35.221 156.38 35.6742C155.875 36.0915 155.293 36.4022 154.668 36.5882C153.956 36.7888 153.219 36.8842 152.48 36.8715C151.929 36.8713 151.38 36.8104 150.843 36.6898C150.421 36.6095 150.01 36.4784 149.618 36.2992L150.268 33.3929C150.937 33.665 151.65 33.808 152.371 33.8148C153.297 33.8148 154.022 33.5895 154.547 33.139C155.071 32.6885 155.529 31.9945 155.923 31.057C154.796 28.8603 153.716 26.4638 152.682 23.8675C151.609 21.1661 150.685 18.4059 149.914 15.5999H153.716C153.912 16.4371 154.154 17.3486 154.441 18.3342C154.728 19.3199 155.039 20.3134 155.373 21.3147C155.708 22.3225 156.062 23.3258 156.438 24.3245C156.813 25.3232 157.188 26.2503 157.562 27.1058C158.189 25.3271 158.777 23.4345 159.325 21.428C159.873 19.4215 160.372 17.4794 160.82 15.6018L164.509 15.6038Z" fill="#58585A"/>
</svg>
